<svg width="36" height="36" viewBox="0 0 36 36" fill="none" xmlns="http://www.w3.org/2000/svg">
<path d="M28.7985 19.4219C28.871 18.9957 28.871 18.4978 28.871 18.0001C28.871 17.5023 28.7985 17.076 28.7985 16.5782L31.8519 14.2322C32.1432 14.0191 32.2155 13.6637 31.9975 13.3081L29.0889 8.4024C28.9434 8.11775 28.5074 7.97618 28.2162 8.11775L24.5804 9.53969C23.8532 8.97108 22.9812 8.47322 22.1085 8.11775L21.5994 4.34999C21.5269 4.06602 21.2358 3.78137 20.8722 3.78137H15.0549C14.6914 3.78137 14.4003 4.06602 14.3278 4.34999L13.7462 8.11775C12.8735 8.47322 12.0739 8.97101 11.2736 9.53969L7.63782 8.11775C7.27422 7.97618 6.91061 8.11775 6.76508 8.4024L3.85645 13.3082C3.7116 13.5921 3.78392 14.0191 4.00199 14.2323L7.12882 16.5782C7.12882 17.076 7.05636 17.5023 7.05636 18.0001C7.05636 18.4978 7.12882 18.9241 7.12882 19.4219L4.07534 21.7679C3.78413 21.981 3.71181 22.3364 3.92973 22.692L6.83836 27.5977C6.98396 27.8824 7.41996 28.0239 7.7111 27.8824L11.3469 26.4604C12.0741 27.029 12.9461 27.5269 13.8188 27.8824L14.4004 31.6501C14.4735 32.0056 14.7639 32.2187 15.1275 32.2187H20.9448C21.3084 32.2187 21.5995 31.9341 21.672 31.6501L22.2543 27.8824C23.1263 27.5269 23.9266 27.0291 24.7262 26.4604L28.362 27.8824C28.7255 28.0239 29.0891 27.8824 29.2347 27.5977L32.1434 22.6919C32.2889 22.408 32.2158 21.981 31.9978 21.7678L28.7985 19.4219ZM17.9636 22.9766C15.1275 22.9766 12.8736 20.7731 12.8736 18.0001C12.8736 15.2271 15.1275 13.0235 17.9636 13.0235C20.7998 13.0235 23.0537 15.2271 23.0537 18.0001C23.0537 20.7731 20.7998 22.9766 17.9636 22.9766Z" fill="black"/>
</svg>
