<svg width="25" height="26" viewBox="0 0 25 26" fill="none" xmlns="http://www.w3.org/2000/svg">
<path d="M18.7836 17.557L15.6107 14.8117C15.2833 14.5117 14.9321 14.3723 14.6494 14.3874C15.3994 13.4936 15.8518 12.336 15.8518 11.0694C15.8489 8.24234 13.6017 5.95459 10.8277 5.95459C8.05371 5.95459 5.80356 8.24234 5.80356 11.0694C5.80356 13.8966 8.05073 16.1843 10.8277 16.1843C12.0718 16.1843 13.2088 15.7237 14.0868 14.9601C14.072 15.248 14.2089 15.6056 14.5035 15.9389L17.2001 19.169C17.6615 19.6902 18.4175 19.7356 18.8758 19.2659C19.3372 18.7963 19.2955 18.0297 18.7836 17.557ZM10.8277 14.4753C8.97936 14.4753 7.47926 12.9481 7.47926 11.0664C7.47926 9.18471 8.97639 7.65752 10.8277 7.65752C12.679 7.65752 14.1761 9.18471 14.1761 11.0664C14.1761 12.9481 12.676 14.4753 10.8277 14.4753Z" fill="white"/>
</svg>
