<svg width="36" height="36" viewBox="0 0 36 36" fill="none" xmlns="http://www.w3.org/2000/svg">
<g id="search_logo">
<path id="Vector" d="M26.797 24.3797L22.3551 20.5362C21.8967 20.1163 21.405 19.9211 21.0091 19.9423C22.0592 18.6909 22.6926 17.0704 22.6926 15.2972C22.6884 11.3392 19.5424 8.13635 15.6588 8.13635C11.7752 8.13635 8.625 11.3392 8.625 15.2972C8.625 19.2551 11.771 22.458 15.6588 22.458C17.4006 22.458 18.9923 21.8131 20.2216 20.7441C20.2008 21.1471 20.3924 21.6477 20.805 22.1143L24.5802 26.6365C25.2261 27.3662 26.2845 27.4298 26.9262 26.7723C27.5721 26.1147 27.5137 25.0414 26.797 24.3797ZM15.6588 20.0654C13.0711 20.0654 10.971 17.9273 10.971 15.2929C10.971 12.6585 13.067 10.5205 15.6588 10.5205C18.2506 10.5205 20.3466 12.6585 20.3466 15.2929C20.3466 17.9273 18.2465 20.0654 15.6588 20.0654Z" fill="white"/>
</g>
</svg>
