<svg width="36" height="35" viewBox="0 0 36 35" fill="none" xmlns="http://www.w3.org/2000/svg">
<g id="logo">
<path id="Vector" d="M28.7985 18.9219C28.871 18.4956 28.871 17.9978 28.871 17.5C28.871 17.0022 28.7985 16.5759 28.7985 16.0781L31.8519 13.7322C32.1432 13.519 32.2155 13.1636 31.9975 12.8081L29.0889 7.90234C28.9434 7.61769 28.5074 7.47612 28.2162 7.61769L24.5804 9.03963C23.8532 8.47102 22.9812 7.97316 22.1085 7.61769L21.5994 3.84992C21.5269 3.56596 21.2358 3.28131 20.8722 3.28131H15.0549C14.6914 3.28131 14.4003 3.56596 14.3278 3.84992L13.7462 7.61769C12.8735 7.97316 12.0739 8.47095 11.2736 9.03963L7.63782 7.61769C7.27422 7.47612 6.91061 7.61769 6.76508 7.90234L3.85645 12.8081C3.7116 13.092 3.78392 13.519 4.00199 13.7322L7.12882 16.0781C7.12882 16.5759 7.05636 17.0022 7.05636 17.5C7.05636 17.9978 7.12882 18.4241 7.12882 18.9219L4.07534 21.2678C3.78413 21.481 3.71181 21.8364 3.92973 22.1919L6.83836 27.0976C6.98396 27.3823 7.41996 27.5239 7.7111 27.3823L11.3469 25.9604C12.0741 26.529 12.9461 27.0268 13.8188 27.3823L14.4004 31.1501C14.4735 31.5055 14.7639 31.7187 15.1275 31.7187H20.9448C21.3084 31.7187 21.5995 31.434 21.672 31.1501L22.2543 27.3823C23.1263 27.0268 23.9266 26.529 24.7262 25.9604L28.362 27.3823C28.7255 27.5239 29.0891 27.3823 29.2347 27.0976L32.1434 22.1918C32.2889 21.9079 32.2158 21.481 31.9978 21.2678L28.7985 18.9219ZM17.9636 22.4766C15.1275 22.4766 12.8736 20.273 12.8736 17.5C12.8736 14.727 15.1275 12.5234 17.9636 12.5234C20.7998 12.5234 23.0537 14.727 23.0537 17.5C23.0537 20.273 20.7998 22.4766 17.9636 22.4766Z" fill="black"/>
</g>
</svg>
