<svg width="16" height="16" viewBox="0 0 16 16" fill="none" xmlns="http://www.w3.org/2000/svg">
<path d="M13.127 9.89258C13.127 9.76367 13.1621 9.64062 13.2236 9.53516C13.2412 9.50293 13.2646 9.47363 13.2852 9.44434C13.7949 8.68262 14.0938 7.77148 14.0938 6.79883C14.1025 4.09766 11.8232 1.90625 9.00488 1.90625C6.54687 1.90625 4.49609 3.5791 4.01562 5.7998C3.94531 6.125 3.90723 6.45605 3.90723 6.80176C3.90723 9.50586 6.09863 11.7559 8.91699 11.7559C9.36523 11.7559 9.96875 11.6211 10.2998 11.5303C10.6309 11.4395 10.959 11.3193 11.0439 11.2871C11.1289 11.2549 11.2227 11.2373 11.3164 11.2373C11.4219 11.2373 11.5215 11.2578 11.6123 11.2959L13.2734 11.8848C13.2734 11.8848 13.3437 11.9141 13.3877 11.9141C13.5166 11.9141 13.6221 11.8115 13.6221 11.6797C13.6221 11.6504 13.6074 11.6006 13.6074 11.6006L13.127 9.89258Z" fill="black"/>
<path d="M9.83105 11.999C9.72559 12.0283 9.59082 12.0605 9.44434 12.0928C9.13672 12.1572 8.74414 12.2246 8.44824 12.2246C5.62988 12.2246 3.43848 9.97461 3.43848 7.27051C3.43848 7.07715 3.45898 6.83105 3.48242 6.64355C3.5 6.51758 3.52051 6.3916 3.5498 6.26855C3.5791 6.13672 3.61426 6.00488 3.65234 5.87598L3.41797 6.08398C2.45703 6.92188 1.90625 8.11719 1.90625 9.3623C1.90625 10.2207 2.15527 11.0469 2.63281 11.7646C2.7002 11.8672 2.73828 11.9463 2.72656 11.999C2.71484 12.0518 2.37793 13.8154 2.37793 13.8154C2.36035 13.9004 2.39258 13.9854 2.45703 14.041C2.50098 14.0762 2.55371 14.0938 2.60645 14.0938C2.63574 14.0938 2.66504 14.0879 2.69141 14.0762L4.33496 13.4287C4.3877 13.4082 4.44336 13.3965 4.50195 13.3965C4.50195 13.3965 4.57227 13.3906 4.68652 13.4346C5.24023 13.6514 5.85254 13.7861 6.46484 13.7861C7.83008 13.7861 9.11328 13.1973 9.9834 12.1719C9.9834 12.1719 10.0771 12.043 10.1855 11.8906C10.0771 11.9287 9.9541 11.9668 9.83105 11.999Z" fill="black"/>
</svg>
